<svg width="45" height="45" viewBox="0 0 45 45" fill="none" xmlns="http://www.w3.org/2000/svg">
<path d="M22.4649 0C21.7337 0 21.0024 0.149718 20.4361 0.449155L2.35169 10.0078C1.2187 10.6066 1.2187 11.5536 2.35169 12.1525L20.4361 21.7111C21.569 22.31 23.3606 22.31 24.4935 21.7111L42.5779 12.1525C43.7109 11.5537 43.7109 10.6066 42.5779 10.0079L24.4935 0.449263C23.927 0.14961 23.196 0 22.4649 0ZM22.3673 5.74533C23.4344 5.75582 24.3938 5.97921 25.2454 6.41517C25.8279 6.71352 26.2094 7.05374 26.3897 7.43615C26.5641 7.81553 26.5744 8.31564 26.4205 8.93604L26.2311 9.5533C26.1056 9.99499 26.0796 10.3127 26.153 10.5064C26.2204 10.6972 26.3877 10.861 26.6552 10.9979L27.0565 11.2032L23.1218 13.2175L22.6846 12.9939C22.1971 12.7444 21.8862 12.4625 21.7514 12.148C21.6107 11.8304 21.6342 11.3255 21.8217 10.6329L22.0021 10.0111C22.1071 9.64082 22.1173 9.33716 22.0329 9.10047C21.9556 8.85988 21.7803 8.6696 21.5068 8.52962C21.0906 8.3165 20.5921 8.24013 20.0115 8.29995C19.4248 8.35686 18.8191 8.5453 18.1942 8.86518C17.6056 9.16646 17.0711 9.54367 16.59 9.99672C16.1032 10.447 15.6856 10.9621 15.3367 11.5424L12.5367 10.1088C13.1663 9.53113 13.7849 9.02594 14.3926 8.5929C15.0004 8.16019 15.6421 7.77075 16.3179 7.42458C18.0909 6.51696 19.7397 5.97716 21.2642 5.80548C21.6301 5.76251 21.9985 5.74249 22.3673 5.74533ZM28.3764 11.879L31.5511 13.5043L27.6164 15.5186L24.4416 13.8934L28.3764 11.879ZM1.14412 13.9632C0.463022 13.9464 0 14.4322 0 15.2916V32.3508C0 33.5464 0.89621 34.9647 2.0292 35.5626L19.4242 44.7413C20.5572 45.3391 21.4534 44.8664 21.4534 43.6709V26.6113C21.4534 25.4158 20.5572 23.9978 19.4242 23.3998L2.0292 14.2212C1.71073 14.053 1.41061 13.9697 1.14412 13.9632ZM43.8559 13.9634C43.5895 13.9699 43.2896 14.0532 42.971 14.2214L25.5755 23.4C24.4425 23.9979 23.5463 25.4162 23.5463 26.6118V43.6714C23.5463 44.8668 24.4425 45.3393 25.5755 44.7413L42.9712 35.5631C44.1041 34.9652 45 33.5471 45 32.3515V15.2918C45 14.4327 44.5371 13.9467 43.8559 13.9634ZM5.7883 20.86C6.56411 21.0077 7.27267 21.1886 7.91387 21.4022C8.55665 21.6167 9.17777 21.8818 9.77022 22.1947C11.3345 23.0201 12.527 23.9606 13.3477 25.0162C14.1684 26.0655 14.5787 27.1847 14.5787 28.374C14.5787 28.9841 14.4538 29.4659 14.2037 29.8197C13.9536 30.1672 13.5272 30.459 12.9246 30.6953L12.309 30.903C11.8731 31.059 11.5876 31.2197 11.453 31.3855C11.3184 31.5447 11.2512 31.7643 11.2512 32.0445V32.4647L7.77938 30.633V30.1754C7.77938 29.6648 7.88498 29.2693 8.09666 28.9887C8.30823 28.7018 8.75396 28.4326 9.43352 28.1809L10.0491 27.9639C10.4146 27.833 10.6806 27.6684 10.8473 27.4698C11.0202 27.2748 11.1068 27.0341 11.1068 26.7476C11.1068 26.312 10.9529 25.8914 10.6451 25.4863C10.3373 25.0748 9.90791 24.7236 9.35645 24.4326C8.83707 24.1587 8.27602 23.9686 7.6733 23.8623C7.0707 23.7498 6.44229 23.7267 5.7883 23.7926V20.86ZM37.699 21.791C37.8792 21.791 38.0462 21.8089 38.2001 21.8444C39.0207 22.0278 39.4311 22.7141 39.4311 23.9034C39.4311 24.5136 39.306 25.1274 39.056 25.7449C38.806 26.3562 38.3795 27.0979 37.7769 27.9699L37.1613 28.8272C36.7254 29.4432 36.44 29.9049 36.3053 30.2126C36.1707 30.5139 36.1035 30.8046 36.1035 31.0848V31.5051L32.6317 33.3368V32.8792C32.6317 32.3686 32.7376 31.8612 32.949 31.3574C33.1609 30.8474 33.6063 30.108 34.2859 29.1394L34.9015 28.2728C35.267 27.7562 35.533 27.3107 35.6997 26.9364C35.8725 26.5587 35.9592 26.2266 35.9592 25.9401C35.9592 25.5044 35.8053 25.2462 35.4977 25.1658C35.1899 25.0792 34.7601 25.1811 34.2088 25.4719C33.6894 25.7459 33.1286 26.148 32.5259 26.6775C31.9233 27.2011 31.2949 27.8407 30.6409 28.5966V25.6639C31.4167 24.9932 32.125 24.4264 32.766 23.9636C33.4073 23.5008 34.0262 23.1122 34.6223 22.7977C35.8936 22.127 36.9188 21.7916 37.699 21.791ZM7.77926 32.0155L11.2512 33.8469V37.1719L7.77938 35.3404L7.77926 32.0155ZM36.1035 32.8874V36.2122L32.6317 38.0437V34.7191L36.1035 32.8874Z" fill="white"/>
</svg>
