<svg width="42" height="42" viewBox="0 0 42 42" fill="none" xmlns="http://www.w3.org/2000/svg">
<path d="M14.75 20.4791C14.0593 20.4791 13.3969 20.7535 12.9086 21.2419C12.4202 21.7302 12.1458 22.3926 12.1458 23.0833C12.1458 23.774 12.4202 24.4363 12.9086 24.9247C13.3969 25.4131 14.0593 25.6875 14.75 25.6875C15.092 25.6875 15.4306 25.6201 15.7466 25.4892C16.0625 25.3584 16.3496 25.1665 16.5914 24.9247C16.8332 24.6829 17.0251 24.3958 17.1559 24.0799C17.2868 23.7639 17.3542 23.4253 17.3542 23.0833C17.3542 22.7413 17.2868 22.4027 17.1559 22.0867C17.0251 21.7708 16.8332 21.4837 16.5914 21.2419C16.3496 21.0001 16.0625 20.8082 15.7466 20.6774C15.4306 20.5465 15.092 20.4791 14.75 20.4791ZM27.25 20.4791C26.5593 20.4791 25.8969 20.7535 25.4086 21.2419C24.9202 21.7302 24.6458 22.3926 24.6458 23.0833C24.6458 23.774 24.9202 24.4363 25.4086 24.9247C25.8969 25.4131 26.5593 25.6875 27.25 25.6875C27.9407 25.6875 28.603 25.4131 29.0914 24.9247C29.5798 24.4363 29.8542 23.774 29.8542 23.0833C29.8542 22.3926 29.5798 21.7302 29.0914 21.2419C28.603 20.7535 27.9407 20.4791 27.25 20.4791ZM21 0.166626C18.2641 0.166626 15.555 0.705496 13.0274 1.75247C10.4998 2.79944 8.20315 4.33401 6.2686 6.26857C2.36159 10.1756 0.166656 15.4746 0.166656 21C0.166656 26.5253 2.36159 31.8243 6.2686 35.7314C8.20315 37.6659 10.4998 39.2005 13.0274 40.2475C15.555 41.2944 18.2641 41.8333 21 41.8333C26.5253 41.8333 31.8244 39.6384 35.7314 35.7314C39.6384 31.8243 41.8333 26.5253 41.8333 21C41.8333 18.2641 41.2945 15.555 40.2475 13.0274C39.2005 10.4998 37.6659 8.20312 35.7314 6.26857C33.7968 4.33401 31.5002 2.79944 28.9726 1.75247C26.4449 0.705496 23.7359 0.166626 21 0.166626ZM21 37.6666C11.8125 37.6666 4.33332 30.1875 4.33332 21C4.33332 20.3958 4.33332 19.7916 4.43749 19.2083C9.35416 17.0208 13.25 13 15.2917 8.02079C17.6734 11.4008 21.0095 13.9933 24.8729 15.4667C28.7364 16.94 32.9515 17.2273 36.9792 16.2916C37.4167 17.7708 37.6667 19.3541 37.6667 21C37.6667 30.1875 30.1875 37.6666 21 37.6666Z" fill="#F9F9F9"/>
</svg>
