<svg width="40" height="42" viewBox="0 0 40 42" fill="none" xmlns="http://www.w3.org/2000/svg">
<path d="M20.8698 20.8698L35.599 35.599C33.6711 37.5446 31.3769 39.089 28.8488 40.1429C26.3207 41.1969 23.6088 41.7395 20.8698 41.7395C18.1308 41.7395 15.4189 41.1969 12.8908 40.1429C10.3627 39.089 8.0685 37.5446 6.14063 35.599C-2.04688 27.474 -2.04688 14.2865 6.14063 6.14062C14.2656 -2.04688 27.4531 -2.04688 35.599 6.14062L20.8698 20.8698ZM35.4531 16.7031C34.3481 16.7031 33.2882 17.1421 32.5069 17.9235C31.7254 18.7049 31.2865 19.7647 31.2865 20.8698C31.2865 21.9749 31.7254 23.0347 32.5069 23.8161C33.2882 24.5975 34.3481 25.0365 35.4531 25.0365C36.5582 25.0365 37.618 24.5975 38.3994 23.8161C39.1808 23.0347 39.6198 21.9749 39.6198 20.8698C39.6198 19.7647 39.1808 18.7049 38.3994 17.9235C37.618 17.1421 36.5582 16.7031 35.4531 16.7031Z" fill="#F9F9F9"/>
</svg>
