<svg width="43" height="42" viewBox="0 0 43 42" fill="none" xmlns="http://www.w3.org/2000/svg">
<path d="M25.4236 23.0833C25.4236 22.3926 25.698 21.7302 26.1864 21.2419C26.6747 20.7535 27.3371 20.4791 28.0278 20.4791C28.7185 20.4791 29.3808 20.7535 29.8692 21.2419C30.3576 21.7302 30.632 22.3926 30.632 23.0833C30.632 23.774 30.3576 24.4363 29.8692 24.9247C29.3808 25.4131 28.7185 25.6875 28.0278 25.6875C27.3371 25.6875 26.6747 25.4131 26.1864 24.9247C25.698 24.4363 25.4236 23.774 25.4236 23.0833ZM42.6111 21V41.8333H0.944458V21C0.944458 9.54163 10.3195 0.166626 21.7778 0.166626C33.2361 0.166626 42.6111 9.54163 42.6111 21ZM5.11112 21C5.11112 30.1875 12.5903 37.6666 21.7778 37.6666C30.9653 37.6666 38.4445 30.1875 38.4445 21C38.4445 19.3541 38.1945 17.7708 37.757 16.2916C33.7294 17.2273 29.5142 16.94 25.6507 15.4667C21.7873 13.9933 18.4513 11.4008 16.0695 8.02079C14.0278 13 10.132 17.0208 5.21529 19.2083C5.11113 19.7916 5.11112 20.3958 5.11112 21ZM15.5278 25.6875C16.2185 25.6875 16.8808 25.4131 17.3692 24.9247C17.8576 24.4363 18.132 23.774 18.132 23.0833C18.132 22.3926 17.8576 21.7302 17.3692 21.2419C16.8808 20.7535 16.2185 20.4791 15.5278 20.4791C14.8371 20.4791 14.1747 20.7535 13.6864 21.2419C13.198 21.7302 12.9236 22.3926 12.9236 23.0833C12.9236 23.774 13.198 24.4363 13.6864 24.9247C14.1747 25.4131 14.8371 25.6875 15.5278 25.6875Z" fill="#F9F9F9"/>
</svg>
